<?xml version="1.0" encoding="UTF-8" standalone="no"?>
<!DOCTYPE svg PUBLIC "-//W3C//DTD SVG 1.1//EN"
 "http://www.w3.org/Graphics/SVG/1.1/DTD/svg11.dtd">
<!-- Generated by graphviz version 2.40.1 (20161225.0304)
 -->
<!-- Title: systemd Pages: 1 -->
<svg width="1858pt" height="188pt"
 viewBox="0.00 0.00 1857.69 188.00" xmlns="http://www.w3.org/2000/svg" xmlns:xlink="http://www.w3.org/1999/xlink">
<g id="graph0" class="graph" transform="scale(1 1) rotate(0) translate(4 184)">
<title>systemd</title>
<polygon fill="#ffffff" stroke="transparent" points="-4,4 -4,-184 1853.6863,-184 1853.6863,4 -4,4"/>
<!-- deepin&#45;accounts&#45;daemon.service -->
<g id="node1" class="node">
<title>deepin&#45;accounts&#45;daemon.service</title>
<ellipse fill="none" stroke="#000000" cx="626.7422" cy="-162" rx="163.2712" ry="18"/>
<text text-anchor="middle" x="626.7422" y="-158.3" font-family="Times,serif" font-size="14.00" fill="#000000">deepin&#45;accounts&#45;daemon.service</text>
</g>
<!-- lightdm.service -->
<g id="node2" class="node">
<title>lightdm.service</title>
<ellipse fill="none" stroke="#000000" cx="894.7422" cy="-90" rx="83.3857" ry="18"/>
<text text-anchor="middle" x="894.7422" y="-86.3" font-family="Times,serif" font-size="14.00" fill="#000000">lightdm.service</text>
</g>
<!-- deepin&#45;accounts&#45;daemon.service&#45;&gt;lightdm.service -->
<g id="edge1" class="edge">
<title>deepin&#45;accounts&#45;daemon.service&#45;&gt;lightdm.service</title>
<path fill="none" stroke="#00ff00" d="M688.9004,-145.3008C732.0802,-133.7002 789.3903,-118.3035 832.5726,-106.7023"/>
<polygon fill="#00ff00" stroke="#00ff00" points="833.6436,-110.0387 842.3931,-104.064 831.8274,-103.2784 833.6436,-110.0387"/>
</g>
<!-- shutdown.target -->
<g id="node3" class="node">
<title>shutdown.target</title>
<ellipse fill="none" stroke="#000000" cx="87.7422" cy="-18" rx="87.9851" ry="18"/>
<text text-anchor="middle" x="87.7422" y="-14.3" font-family="Times,serif" font-size="14.00" fill="#000000">shutdown.target</text>
</g>
<!-- lightdm.service&#45;&gt;shutdown.target -->
<g id="edge15" class="edge">
<title>lightdm.service&#45;&gt;shutdown.target</title>
<path fill="none" stroke="#ff0000" d="M812.5433,-86.8737C678.5206,-80.9503 405.1231,-65.9175 175.7422,-36 169.4449,-35.1787 162.9369,-34.2176 156.4387,-33.1746"/>
<polygon fill="#ff0000" stroke="#ff0000" points="156.7069,-29.671 146.2671,-31.4764 155.5542,-36.5755 156.7069,-29.671"/>
</g>
<!-- basic.target -->
<g id="node4" class="node">
<title>basic.target</title>
<ellipse fill="none" stroke="#000000" cx="260.7422" cy="-18" rx="66.8882" ry="18"/>
<text text-anchor="middle" x="260.7422" y="-14.3" font-family="Times,serif" font-size="14.00" fill="#000000">basic.target</text>
</g>
<!-- lightdm.service&#45;&gt;basic.target -->
<g id="edge3" class="edge">
<title>lightdm.service&#45;&gt;basic.target</title>
<path fill="none" stroke="#00ff00" d="M813.9013,-85.6377C704.961,-78.9718 505.2458,-63.9743 336.7422,-36 331.0008,-35.0468 325.0482,-33.9073 319.1167,-32.6707"/>
<polygon fill="#00ff00" stroke="#00ff00" points="319.7104,-29.2181 309.1951,-30.5136 318.2232,-36.0583 319.7104,-29.2181"/>
</g>
<!-- system.slice -->
<g id="node5" class="node">
<title>system.slice</title>
<ellipse fill="none" stroke="#000000" cx="413.7422" cy="-18" rx="68.4888" ry="18"/>
<text text-anchor="middle" x="413.7422" y="-14.3" font-family="Times,serif" font-size="14.00" fill="#000000">system.slice</text>
</g>
<!-- lightdm.service&#45;&gt;system.slice -->
<g id="edge4" class="edge">
<title>lightdm.service&#45;&gt;system.slice</title>
<path fill="none" stroke="#00ff00" d="M818.4101,-82.6508C735.291,-73.704 598.8975,-57.1368 482.7422,-36 478.5121,-35.2303 474.1653,-34.3837 469.8076,-33.4901"/>
<polygon fill="#00ff00" stroke="#00ff00" points="470.179,-29.9908 459.6697,-31.3337 468.7226,-36.8377 470.179,-29.9908"/>
</g>
<!-- lightdm.service&#45;&gt;system.slice -->
<g id="edge11" class="edge">
<title>lightdm.service&#45;&gt;system.slice</title>
<path fill="none" stroke="#000000" d="M821.2839,-81.4876C741.9094,-72.3092 612.036,-56.2521 500.7422,-36 493.2434,-34.6354 485.3777,-33.0294 477.558,-31.348"/>
<polygon fill="#000000" stroke="#000000" points="478.226,-27.9115 467.7087,-29.1905 476.7281,-34.7493 478.226,-27.9115"/>
</g>
<!-- plymouth&#45;quit.service -->
<g id="node6" class="node">
<title>plymouth&#45;quit.service</title>
<ellipse fill="none" stroke="#000000" cx="612.7422" cy="-18" rx="112.3801" ry="18"/>
<text text-anchor="middle" x="612.7422" y="-14.3" font-family="Times,serif" font-size="14.00" fill="#000000">plymouth&#45;quit.service</text>
</g>
<!-- lightdm.service&#45;&gt;plymouth&#45;quit.service -->
<g id="edge5" class="edge">
<title>lightdm.service&#45;&gt;plymouth&#45;quit.service</title>
<path fill="none" stroke="#00ff00" d="M837.655,-76.7941C791.5577,-65.4379 726.7438,-48.9409 678.4908,-36.3101"/>
<polygon fill="#00ff00" stroke="#00ff00" points="679.3261,-32.9109 668.7652,-33.7576 677.5491,-39.6816 679.3261,-32.9109"/>
</g>
<!-- lightdm.service&#45;&gt;plymouth&#45;quit.service -->
<g id="edge16" class="edge">
<title>lightdm.service&#45;&gt;plymouth&#45;quit.service</title>
<path fill="none" stroke="#ff0000" d="M844.206,-75.689C800.176,-64.0587 735.8803,-47.6134 686.1855,-35.2553"/>
<polygon fill="#ff0000" stroke="#ff0000" points="687.0001,-31.8513 676.4516,-32.8408 685.3148,-38.6454 687.0001,-31.8513"/>
</g>
<!-- systemd&#45;user&#45;sessions.service -->
<g id="node7" class="node">
<title>systemd&#45;user&#45;sessions.service</title>
<ellipse fill="none" stroke="#000000" cx="894.7422" cy="-18" rx="151.3732" ry="18"/>
<text text-anchor="middle" x="894.7422" y="-14.3" font-family="Times,serif" font-size="14.00" fill="#000000">systemd&#45;user&#45;sessions.service</text>
</g>
<!-- lightdm.service&#45;&gt;systemd&#45;user&#45;sessions.service -->
<g id="edge6" class="edge">
<title>lightdm.service&#45;&gt;systemd&#45;user&#45;sessions.service</title>
<path fill="none" stroke="#00ff00" d="M894.7422,-71.8314C894.7422,-64.131 894.7422,-54.9743 894.7422,-46.4166"/>
<polygon fill="#00ff00" stroke="#00ff00" points="898.2423,-46.4132 894.7422,-36.4133 891.2423,-46.4133 898.2423,-46.4132"/>
</g>
<!-- sysinit.target -->
<g id="node8" class="node">
<title>sysinit.target</title>
<ellipse fill="none" stroke="#000000" cx="1137.7422" cy="-18" rx="73.387" ry="18"/>
<text text-anchor="middle" x="1137.7422" y="-14.3" font-family="Times,serif" font-size="14.00" fill="#000000">sysinit.target</text>
</g>
<!-- lightdm.service&#45;&gt;sysinit.target -->
<g id="edge7" class="edge">
<title>lightdm.service&#45;&gt;sysinit.target</title>
<path fill="none" stroke="#00ff00" d="M940.3541,-74.8186C979.3211,-62.8382 1035.5412,-46.1709 1078.0662,-33.9867"/>
<polygon fill="#00ff00" stroke="#00ff00" points="1079.0845,-37.3359 1087.7397,-31.2254 1077.163,-30.6048 1079.0845,-37.3359"/>
</g>
<!-- lightdm.service&#45;&gt;sysinit.target -->
<g id="edge13" class="edge">
<title>lightdm.service&#45;&gt;sysinit.target</title>
<path fill="none" stroke="#000000" d="M947.3527,-76.0323C987.923,-64.4718 1043.7024,-47.986 1084.441,-35.538"/>
<polygon fill="#000000" stroke="#000000" points="1085.6603,-38.825 1094.1942,-32.5462 1083.6075,-32.1327 1085.6603,-38.825"/>
</g>
<!-- getty@tty1.service -->
<g id="node9" class="node">
<title>getty@tty1.service</title>
<ellipse fill="none" stroke="#000000" cx="1329.7422" cy="-18" rx="100.1823" ry="18"/>
<text text-anchor="middle" x="1329.7422" y="-14.3" font-family="Times,serif" font-size="14.00" fill="#000000">getty@tty1.service</text>
</g>
<!-- lightdm.service&#45;&gt;getty@tty1.service -->
<g id="edge8" class="edge">
<title>lightdm.service&#45;&gt;getty@tty1.service</title>
<path fill="none" stroke="#00ff00" d="M959.0484,-78.5118C1034.5127,-65.6738 1159.8307,-44.9159 1243.6257,-31.3622"/>
<polygon fill="#00ff00" stroke="#00ff00" points="1244.3186,-34.7958 1253.6327,-29.7461 1243.2025,-27.8853 1244.3186,-34.7958"/>
</g>
<!-- lightdm.service&#45;&gt;getty@tty1.service -->
<g id="edge14" class="edge">
<title>lightdm.service&#45;&gt;getty@tty1.service</title>
<path fill="none" stroke="#ff0000" d="M962.923,-79.5306C1040.2336,-67.1004 1166.0791,-46.3036 1248.4308,-32.3726"/>
<polygon fill="#ff0000" stroke="#ff0000" points="1249.2268,-35.7877 1258.5016,-30.6664 1248.0574,-28.8861 1249.2268,-35.7877"/>
</g>
<!-- systemd&#45;journald.socket -->
<g id="node10" class="node">
<title>systemd&#45;journald.socket</title>
<ellipse fill="none" stroke="#000000" cx="1572.7422" cy="-18" rx="124.5782" ry="18"/>
<text text-anchor="middle" x="1572.7422" y="-14.3" font-family="Times,serif" font-size="14.00" fill="#000000">systemd&#45;journald.socket</text>
</g>
<!-- lightdm.service&#45;&gt;systemd&#45;journald.socket -->
<g id="edge9" class="edge">
<title>lightdm.service&#45;&gt;systemd&#45;journald.socket</title>
<path fill="none" stroke="#00ff00" d="M971.8575,-83.1915C1077.3684,-73.6829 1272.5945,-55.3996 1438.7422,-36 1449.7419,-34.7157 1461.2385,-33.2934 1472.6752,-31.8276"/>
<polygon fill="#00ff00" stroke="#00ff00" points="1473.2283,-35.2853 1482.6963,-30.5306 1472.3297,-28.3432 1473.2283,-35.2853"/>
</g>
<!-- dbus.socket -->
<g id="node11" class="node">
<title>dbus.socket</title>
<ellipse fill="none" stroke="#000000" cx="1782.7422" cy="-18" rx="66.8882" ry="18"/>
<text text-anchor="middle" x="1782.7422" y="-14.3" font-family="Times,serif" font-size="14.00" fill="#000000">dbus.socket</text>
</g>
<!-- lightdm.service&#45;&gt;dbus.socket -->
<g id="edge10" class="edge">
<title>lightdm.service&#45;&gt;dbus.socket</title>
<path fill="none" stroke="#00ff00" d="M978.0685,-88.9093C1124.4756,-85.9949 1436.8374,-75.2934 1697.7422,-36 1705.2844,-34.8641 1713.1813,-33.3584 1721.0086,-31.7001"/>
<polygon fill="#00ff00" stroke="#00ff00" points="1721.8392,-35.1012 1730.8538,-29.5345 1720.3354,-28.2646 1721.8392,-35.1012"/>
</g>
<!-- lightdm.service&#45;&gt;dbus.socket -->
<g id="edge12" class="edge">
<title>lightdm.service&#45;&gt;dbus.socket</title>
<path fill="none" stroke="#000000" d="M977.9797,-89.1119C1126.9723,-86.5074 1448.3759,-76.2665 1715.7422,-36 1719.9658,-35.3639 1724.3007,-34.6118 1728.6388,-33.7819"/>
<polygon fill="#000000" stroke="#000000" points="1729.6193,-37.154 1738.7158,-31.7222 1728.2174,-30.2957 1729.6193,-37.154"/>
</g>
<!-- shutdown.target&#45;&gt;lightdm.service -->
<g id="edge2" class="edge">
<title>shutdown.target&#45;&gt;lightdm.service</title>
<path fill="none" stroke="#00ff00" d="M154.3146,-29.7789C167.4044,-32.1058 181.0043,-34.3386 193.7422,-36 411.3255,-64.3788 668.5141,-79.3646 802.7829,-85.8866"/>
<polygon fill="#00ff00" stroke="#00ff00" points="802.867,-89.3946 813.0237,-86.3792 803.2034,-82.4027 802.867,-89.3946"/>
</g>
<!-- graphical.target -->
<g id="node12" class="node">
<title>graphical.target</title>
<ellipse fill="none" stroke="#000000" cx="894.7422" cy="-162" rx="86.3847" ry="18"/>
<text text-anchor="middle" x="894.7422" y="-158.3" font-family="Times,serif" font-size="14.00" fill="#000000">graphical.target</text>
</g>
<!-- graphical.target&#45;&gt;lightdm.service -->
<g id="edge17" class="edge">
<title>graphical.target&#45;&gt;lightdm.service</title>
<path fill="none" stroke="#00ff00" d="M888.7898,-143.8314C888.0394,-136.131 887.8185,-126.9743 888.1271,-118.4166"/>
<polygon fill="#00ff00" stroke="#00ff00" points="891.6214,-118.6161 888.7662,-108.4133 884.6357,-118.1697 891.6214,-118.6161"/>
</g>
<!-- graphical.target&#45;&gt;lightdm.service -->
<g id="edge18" class="edge">
<title>graphical.target&#45;&gt;lightdm.service</title>
<path fill="none" stroke="#a8a8a8" d="M900.6946,-143.8314C901.445,-136.131 901.6659,-126.9743 901.3573,-118.4166"/>
<polygon fill="#a8a8a8" stroke="#a8a8a8" points="904.8488,-118.1697 900.7182,-108.4133 897.863,-118.6161 904.8488,-118.1697"/>
</g>
<!-- deepin&#45;login&#45;sound.service -->
<g id="node13" class="node">
<title>deepin&#45;login&#45;sound.service</title>
<ellipse fill="none" stroke="#000000" cx="1134.7422" cy="-162" rx="135.3763" ry="18"/>
<text text-anchor="middle" x="1134.7422" y="-158.3" font-family="Times,serif" font-size="14.00" fill="#000000">deepin&#45;login&#45;sound.service</text>
</g>
<!-- deepin&#45;login&#45;sound.service&#45;&gt;lightdm.service -->
<g id="edge19" class="edge">
<title>deepin&#45;login&#45;sound.service&#45;&gt;lightdm.service</title>
<path fill="none" stroke="#00ff00" d="M1079.6814,-145.4817C1041.9509,-134.1626 991.9635,-119.1664 953.4711,-107.6187"/>
<polygon fill="#00ff00" stroke="#00ff00" points="954.0282,-104.1317 943.4442,-104.6106 952.0167,-110.8365 954.0282,-104.1317"/>
</g>
</g>
</svg>
