<svg viewBox="0 0 700 460" xmlns="http://www.w3.org/2000/svg" font-family="sans-serif" font-size="15">
  <rect x="0" y="0" width="700" height="460" fill="white"/>

  <!-- +V rail -->
  <text x="360" y="12" font-weight="bold">+V</text>
  <line x1="140" y1="22" x2="610" y2="22" stroke="black" stroke-width="2"/>

  <!-- ===== Stage 1 ===== -->
  <!-- R1: base bias -->
  <line x1="160" y1="22" x2="160" y2="60" stroke="black" stroke-width="2"/>
  <rect x="148" y="60" width="24" height="45" fill="none" stroke="black" stroke-width="2"/>
  <text x="176" y="86">R1</text>
  <line x1="160" y1="105" x2="160" y2="270" stroke="black" stroke-width="2"/>

  <!-- R2: collector load -->
  <line x1="242" y1="22" x2="242" y2="55" stroke="black" stroke-width="2"/>
  <rect x="230" y="55" width="24" height="45" fill="none" stroke="black" stroke-width="2"/>
  <text x="258" y="82">R2</text>
  <line x1="242" y1="100" x2="242" y2="140" stroke="black" stroke-width="2"/>

  <!-- Node C1 (VT1 collector) -->
  <circle cx="242" cy="140" r="4" fill="black"/>
  <text x="250" y="163" font-weight="bold">C1点</text>

  <!-- interstage coupling C3 -->
  <line x1="242" y1="140" x2="300" y2="140" stroke="black" stroke-width="2"/>
  <line x1="307" y1="128" x2="307" y2="152" stroke="black" stroke-width="2"/>
  <line x1="315" y1="128" x2="315" y2="152" stroke="black" stroke-width="2"/>
  <text x="303" y="122" font-size="13">C3</text>
  <line x1="315" y1="140" x2="400" y2="140" stroke="black" stroke-width="2"/>
  <line x1="400" y1="140" x2="400" y2="270" stroke="black" stroke-width="2"/>

  <!-- Node B1 -->
  <circle cx="160" cy="270" r="4" fill="black"/>
  <text x="118" y="295" font-weight="bold">B1点</text>

  <!-- Input branch -->
  <line x1="160" y1="270" x2="92" y2="270" stroke="black" stroke-width="2"/>
  <line x1="84" y1="258" x2="84" y2="282" stroke="black" stroke-width="2"/>
  <line x1="76" y1="258" x2="76" y2="282" stroke="black" stroke-width="2"/>
  <text x="70" y="252">C1</text>
  <line x1="76" y1="270" x2="40" y2="270" stroke="black" stroke-width="2"/>
  <circle cx="40" cy="270" r="11" fill="none" stroke="black" stroke-width="2"/>
  <text x="8" y="260">Ui</text>

  <!-- Base lead + bar -->
  <line x1="160" y1="270" x2="215" y2="270" stroke="black" stroke-width="2"/>
  <line x1="215" y1="255" x2="215" y2="285" stroke="black" stroke-width="3"/>

  <!-- Collector lead -->
  <line x1="215" y1="258" x2="242" y2="243" stroke="black" stroke-width="2"/>
  <line x1="242" y1="243" x2="242" y2="140" stroke="black" stroke-width="2"/>

  <!-- Emitter lead (NPN arrow) -->
  <line x1="215" y1="282" x2="242" y2="297" stroke="black" stroke-width="2"/>
  <polygon points="233,287 242,297 229,295" fill="black"/>
  <line x1="242" y1="297" x2="242" y2="330" stroke="black" stroke-width="2"/>

  <!-- Transistor envelope VT1 -->
  <circle cx="230" cy="270" r="34" fill="none" stroke="black" stroke-width="2"/>
  <text x="196" y="240" font-weight="bold">VT1</text>

  <!-- Node E1 -->
  <circle cx="242" cy="330" r="4" fill="black"/>
  <text x="250" y="326" font-weight="bold">E1点</text>

  <!-- R3: stage-1 local emitter resistor -->
  <rect x="230" y="330" width="24" height="40" fill="none" stroke="black" stroke-width="2"/>
  <text x="258" y="354">R3</text>
  <line x1="242" y1="370" x2="242" y2="388" stroke="black" stroke-width="2"/>
  <line x1="220" y1="388" x2="264" y2="388" stroke="black" stroke-width="2"/>
  <line x1="228" y1="396" x2="256" y2="396" stroke="black" stroke-width="2"/>
  <line x1="236" y1="404" x2="248" y2="404" stroke="black" stroke-width="2"/>

  <!-- ===== Stage 2 ===== -->
  <!-- R5: base bias -->
  <line x1="400" y1="22" x2="400" y2="60" stroke="black" stroke-width="2"/>
  <rect x="388" y="60" width="24" height="45" fill="none" stroke="black" stroke-width="2"/>
  <text x="416" y="86">R5</text>

  <!-- R6: collector load -->
  <line x1="482" y1="22" x2="482" y2="55" stroke="black" stroke-width="2"/>
  <rect x="470" y="55" width="24" height="45" fill="none" stroke="black" stroke-width="2"/>
  <text x="498" y="82">R6</text>
  <line x1="482" y1="100" x2="482" y2="140" stroke="black" stroke-width="2"/>

  <!-- Node C2 (VT2 collector = output node) -->
  <circle cx="482" cy="140" r="4" fill="black"/>
  <text x="490" y="163" font-weight="bold">C2点</text>

  <!-- Output branch -->
  <line x1="482" y1="140" x2="540" y2="140" stroke="black" stroke-width="2"/>
  <line x1="547" y1="128" x2="547" y2="152" stroke="black" stroke-width="2"/>
  <line x1="555" y1="128" x2="555" y2="152" stroke="black" stroke-width="2"/>
  <text x="543" y="122" font-size="13">C4</text>
  <line x1="555" y1="140" x2="605" y2="140" stroke="black" stroke-width="2"/>
  <polygon points="605,134 619,140 605,146" fill="black"/>
  <text x="623" y="145">Uo</text>

  <!-- Node B2 -->
  <circle cx="400" cy="270" r="4" fill="black"/>
  <text x="356" y="295" font-weight="bold">B2点</text>

  <!-- Base lead + bar -->
  <line x1="400" y1="270" x2="455" y2="270" stroke="black" stroke-width="2"/>
  <line x1="455" y1="255" x2="455" y2="285" stroke="black" stroke-width="3"/>

  <!-- Collector lead -->
  <line x1="455" y1="258" x2="482" y2="243" stroke="black" stroke-width="2"/>
  <line x1="482" y1="243" x2="482" y2="140" stroke="black" stroke-width="2"/>

  <!-- Emitter lead (NPN arrow) -->
  <line x1="455" y1="282" x2="482" y2="297" stroke="black" stroke-width="2"/>
  <polygon points="473,287 482,297 469,295" fill="black"/>
  <line x1="482" y1="297" x2="482" y2="310" stroke="black" stroke-width="2"/>

  <!-- Transistor envelope VT2 -->
  <circle cx="470" cy="270" r="34" fill="none" stroke="black" stroke-width="2"/>
  <text x="436" y="240" font-weight="bold">VT2</text>

  <!-- Node E2 -->
  <circle cx="482" cy="310" r="4" fill="black"/>
  <text x="492" y="306">E2点</text>

  <!-- R7 (stage-2 emitter resistor) -->
  <rect x="470" y="310" width="24" height="35" fill="none" stroke="black" stroke-width="2"/>
  <text x="498" y="332">R7</text>
  <line x1="482" y1="345" x2="482" y2="360" stroke="black" stroke-width="2"/>

  <!-- C5 bypass, parallel to R7 -->
  <line x1="482" y1="310" x2="522" y2="310" stroke="black" stroke-width="2"/>
  <line x1="522" y1="310" x2="522" y2="332" stroke="black" stroke-width="2"/>
  <line x1="513" y1="332" x2="531" y2="332" stroke="black" stroke-width="2"/>
  <line x1="513" y1="339" x2="531" y2="339" stroke="black" stroke-width="2"/>
  <text x="534" y="308" font-size="12">C5</text>
  <line x1="522" y1="339" x2="522" y2="360" stroke="black" stroke-width="2"/>
  <line x1="482" y1="360" x2="522" y2="360" stroke="black" stroke-width="2"/>

  <!-- ground for stage 2 -->
  <line x1="502" y1="360" x2="502" y2="370" stroke="black" stroke-width="2"/>
  <line x1="480" y1="370" x2="524" y2="370" stroke="black" stroke-width="2"/>
  <line x1="488" y1="378" x2="516" y2="378" stroke="black" stroke-width="2"/>
  <line x1="496" y1="386" x2="508" y2="386" stroke="black" stroke-width="2"/>

  <!-- ===== R4 : cross-stage feedback (big loop) ===== -->
  <line x1="482" y1="140" x2="500" y2="155" stroke="black" stroke-width="2"/>
  <line x1="500" y1="155" x2="650" y2="155" stroke="black" stroke-width="2"/>
  <line x1="650" y1="155" x2="650" y2="410" stroke="black" stroke-width="2"/>
  <line x1="650" y1="410" x2="210" y2="410" stroke="black" stroke-width="2"/>
  <line x1="210" y1="410" x2="210" y2="330" stroke="black" stroke-width="2"/>
  <line x1="210" y1="330" x2="242" y2="330" stroke="black" stroke-width="2"/>
  <text x="560" y="185" font-weight="bold">R4</text>
  <text x="530" y="200" font-size="11" fill="#555">(跨级环路反馈)</text>
</svg>
